<?xml version="1.0" encoding="utf-8"?>
<!-- Generator: Adobe Illustrator 25.3.1, SVG Export Plug-In . SVG Version: 6.00 Build 0)  -->
<svg version="1.1" id="Layer_1" xmlns="http://www.w3.org/2000/svg" xmlns:xlink="http://www.w3.org/1999/xlink" x="0px" y="0px"
	 viewBox="0 0 500 500" style="enable-background:new 0 0 500 500;" xml:space="preserve">
<style type="text/css">
	.st0{fill:#FFF200;}
</style>
<ellipse class="st0" cx="255.08" cy="235.55" rx="141.21" ry="143.41"/>
<rect x="250.47" y="16.87" class="st0" width="9.21" height="70.88"/>
<rect x="255.08" y="383.35" class="st0" width="9.21" height="70.88"/>
<rect x="67.23" y="202.41" transform="matrix(6.123234e-17 -1 1 6.123234e-17 -166.0165 309.6868)" class="st0" width="9.21" height="70.88"/>
<rect x="433.71" y="197.81" transform="matrix(6.123234e-17 -1 1 6.123234e-17 205.0714 671.5659)" class="st0" width="9.21" height="70.88"/>
<rect x="120.9" y="70.54" transform="matrix(0.7071 -0.7071 0.7071 0.7071 -38.178 119.786)" class="st0" width="9.21" height="70.88"/>
<rect x="383.3" y="326.43" transform="matrix(0.7071 -0.7071 0.7071 0.7071 -142.2628 380.2776)" class="st0" width="9.21" height="70.88"/>
<rect x="122.53" y="331.31" transform="matrix(-0.7071 -0.7071 0.7071 -0.7071 -42.3004 715.9763)" class="st0" width="9.21" height="70.88"/>
<rect x="378.42" y="68.91" transform="matrix(-0.7071 -0.7071 0.7071 -0.7071 580.0703 448.9731)" class="st0" width="9.21" height="70.88"/>
</svg>
